<svg width="7" height="11" viewBox="0 0 7 11" fill="none" xmlns="http://www.w3.org/2000/svg">
<path d="M3.45898 10.1299C2.30599 10.1299 1.45378 9.83594 0.902344 9.24805C0.355469 8.6556 0.0820312 7.76921 0.0820312 6.58887L1.69531 6.51367C1.69531 6.89193 1.72038 7.21094 1.77051 7.4707C1.82064 7.73047 1.90951 7.96061 2.03711 8.16113C2.16927 8.3571 2.35156 8.50293 2.58398 8.59863C2.81641 8.69434 3.10807 8.74219 3.45898 8.74219C4.01953 8.74219 4.46159 8.58952 4.78516 8.28418C5.11328 7.97428 5.27734 7.57324 5.27734 7.08105C5.27734 6.56152 5.12012 6.1582 4.80566 5.87109C4.49577 5.57943 4.09245 5.43359 3.5957 5.43359H3.16504V4.16895H3.5752C3.94889 4.16895 4.26107 4.03678 4.51172 3.77246C4.76693 3.50814 4.89453 3.17773 4.89453 2.78125C4.89453 2.38932 4.75781 2.07715 4.48438 1.84473C4.21094 1.6123 3.86003 1.49609 3.43164 1.49609C3.15365 1.49609 2.91895 1.54167 2.72754 1.63281C2.53613 1.72396 2.3903 1.85612 2.29004 2.0293C2.19434 2.20247 2.12598 2.38932 2.08496 2.58984C2.04395 2.78581 2.02344 3.01367 2.02344 3.27344L0.423828 3.20508C0.423828 2.20703 0.685872 1.44368 1.20996 0.915039C1.73405 0.381836 2.47005 0.115234 3.41797 0.115234C4.26562 0.115234 4.96973 0.359049 5.53027 0.84668C6.09082 1.33431 6.37109 1.93815 6.37109 2.6582C6.37109 3.14128 6.24349 3.56283 5.98828 3.92285C5.73307 4.28288 5.42773 4.53809 5.07227 4.68848C5.5918 4.83431 6.02246 5.11458 6.36426 5.5293C6.71061 5.94401 6.88379 6.48405 6.88379 7.14941C6.88379 8.0472 6.56706 8.76953 5.93359 9.31641C5.30013 9.85872 4.47526 10.1299 3.45898 10.1299Z" fill="#1D352A"/>
</svg>
