<svg width="375" height="255" viewBox="0 0 375 255" fill="none" xmlns="http://www.w3.org/2000/svg">
<rect x="3.2876" y="49.601" width="4.82197" height="11.9894" rx="2.41098" transform="rotate(-30 3.2876 49.601)" fill="#FFD34E"/>
<rect x="81" y="216.411" width="4.82197" height="11.9894" rx="2.41098" transform="rotate(-30 81 216.411)" fill="#FFD34E"/>
<rect x="34.1484" y="173.043" width="4.82197" height="11.9894" rx="2.41098" transform="rotate(-30 34.1484 173.043)" fill="#8DDFF2"/>
<rect x="103.793" y="144.141" width="4.82197" height="11.9894" rx="2.41098" transform="rotate(30 103.793 144.141)" fill="#8DDFF2"/>
<rect x="61.3613" y="104.09" width="4.82197" height="11.9894" rx="2.41098" transform="rotate(15 61.3613 104.09)" fill="#8398FF"/>
<rect x="114.193" y="59.2446" width="4.82197" height="11.9894" rx="2.41098" transform="rotate(-30 114.193 59.2446)" fill="#8398FF"/>
<rect x="138" y="178.411" width="4.82197" height="11.9894" rx="2.41098" transform="rotate(-30 138 178.411)" fill="#8398FF"/>
<rect x="73.897" y="10.5434" width="4.82197" height="11.9894" rx="2.41098" transform="rotate(30 73.897 10.5434)" fill="#8DDFF2"/>
<rect x="173.229" y="91.5528" width="4.82197" height="11.9894" rx="2.41098" transform="rotate(30 173.229 91.5528)" fill="#FFC260"/>
<rect width="4.82197" height="11.9894" rx="2.41098" transform="matrix(0.866025 -0.5 -0.5 -0.866025 206.136 140.029)" fill="#E870B0"/>
<rect width="4.82197" height="11.9894" rx="2.41098" transform="matrix(0.866025 -0.5 -0.5 -0.866025 247.995 198.794)" fill="#E870B0"/>
<rect width="4.82197" height="11.9894" rx="2.41098" transform="matrix(0.866025 0.5 0.5 -0.866025 249.325 69.1465)" fill="#FFD34E"/>
<rect width="4.82197" height="11.9894" rx="2.41098" transform="matrix(0.866025 -0.5 -0.5 -0.866025 301.611 23.3386)" fill="#8398FF"/>
<rect width="4.82197" height="11.9894" rx="2.41098" transform="matrix(0.866025 0.5 0.5 -0.866025 363.124 59.5027)" fill="#8DDFF2"/>
<rect width="4.82197" height="11.9894" rx="2.41098" transform="matrix(0.866025 0.5 0.5 -0.866025 206.731 10.3833)" fill="#6ECE8A"/>
<rect width="4.82197" height="11.9894" rx="2.41098" transform="matrix(0.866025 0.5 0.5 -0.866025 33 252.383)" fill="#6ECE8A"/>
<rect width="4.82197" height="11.9894" rx="2.41098" transform="matrix(0.866025 0.5 0.5 -0.866025 284 220.383)" fill="#6ECE8A"/>
<rect width="4.82197" height="11.9894" rx="2.41098" transform="matrix(0.866025 0.5 0.5 -0.866025 331.299 192.589)" fill="#8398FF"/>
<rect width="4.82197" height="11.9894" rx="2.41098" transform="matrix(0.866025 -0.5 -0.5 -0.866025 264.995 147.794)" fill="#FFD34E"/>
<rect width="4.82197" height="11.9894" rx="2.41098" transform="matrix(0.965926 -0.258819 -0.258819 -0.965926 312.222 119.811)" fill="#8398FF"/>
<rect width="4.82197" height="11.9894" rx="2.41098" transform="matrix(0.965926 -0.258819 -0.258819 -0.965926 170.296 29.9617)" fill="#8398FF"/>
</svg>
