<svg width="342" height="255" viewBox="0 0 342 255" fill="none" xmlns="http://www.w3.org/2000/svg">
<rect width="4.82197" height="11.9894" rx="2.41098" transform="matrix(0.866025 -0.5 -0.5 -0.866025 173.136 140.029)" fill="#E870B0"/>
<rect width="4.82197" height="11.9894" rx="2.41098" transform="matrix(0.866025 -0.5 -0.5 -0.866025 214.995 198.794)" fill="#E870B0"/>
<rect width="4.82197" height="11.9894" rx="2.41098" transform="matrix(0.866025 0.5 0.5 -0.866025 216.325 69.1465)" fill="#FFD34E"/>
<rect width="4.82197" height="11.9894" rx="2.41098" transform="matrix(0.866025 -0.5 -0.5 -0.866025 268.611 23.3386)" fill="#8398FF"/>
<rect width="4.82197" height="11.9894" rx="2.41098" transform="matrix(0.866025 0.5 0.5 -0.866025 330.124 59.5027)" fill="#8DDFF2"/>
<rect width="4.82197" height="11.9894" rx="2.41098" transform="matrix(0.866025 0.5 0.5 -0.866025 173.731 10.3833)" fill="#6ECE8A"/>
<rect width="4.82197" height="11.9894" rx="2.41098" transform="matrix(0.866025 0.5 0.5 -0.866025 0 252.383)" fill="#6ECE8A"/>
<rect width="4.82197" height="11.9894" rx="2.41098" transform="matrix(0.866025 0.5 0.5 -0.866025 251 220.383)" fill="#6ECE8A"/>
<rect width="4.82197" height="11.9894" rx="2.41098" transform="matrix(0.866025 0.5 0.5 -0.866025 298.299 192.589)" fill="#8398FF"/>
<rect width="4.82197" height="11.9894" rx="2.41098" transform="matrix(0.866025 -0.5 -0.5 -0.866025 231.995 147.794)" fill="#FFD34E"/>
<rect width="4.82197" height="11.9894" rx="2.41098" transform="matrix(0.965926 -0.258819 -0.258819 -0.965926 279.222 119.811)" fill="#8398FF"/>
<rect width="4.82197" height="11.9894" rx="2.41098" transform="matrix(0.965926 -0.258819 -0.258819 -0.965926 137.296 29.9617)" fill="#8398FF"/>
</svg>
