<svg width="178" height="217" viewBox="0 0 178 217" fill="none" xmlns="http://www.w3.org/2000/svg">
<rect x="3.2876" y="39.601" width="4.82197" height="11.9894" rx="2.41098" transform="rotate(-30 3.2876 39.601)" fill="#FFD34E"/>
<rect x="81" y="206.411" width="4.82197" height="11.9894" rx="2.41098" transform="rotate(-30 81 206.411)" fill="#FFD34E"/>
<rect x="34.1484" y="163.043" width="4.82197" height="11.9894" rx="2.41098" transform="rotate(-30 34.1484 163.043)" fill="#8DDFF2"/>
<rect x="103.793" y="134.141" width="4.82197" height="11.9894" rx="2.41098" transform="rotate(30 103.793 134.141)" fill="#8DDFF2"/>
<rect x="61.3613" y="94.09" width="4.82197" height="11.9894" rx="2.41098" transform="rotate(15 61.3613 94.09)" fill="#8398FF"/>
<rect x="114.193" y="49.2446" width="4.82197" height="11.9894" rx="2.41098" transform="rotate(-30 114.193 49.2446)" fill="#8398FF"/>
<rect x="138" y="168.411" width="4.82197" height="11.9894" rx="2.41098" transform="rotate(-30 138 168.411)" fill="#8398FF"/>
<rect x="73.897" y="0.543423" width="4.82197" height="11.9894" rx="2.41098" transform="rotate(30 73.897 0.543423)" fill="#8DDFF2"/>
<rect x="173.229" y="81.5528" width="4.82197" height="11.9894" rx="2.41098" transform="rotate(30 173.229 81.5528)" fill="#FFC260"/>
</svg>
